<mxfile host="Electron" agent="Mozilla/5.0 (Windows NT 10.0; Win64; x64) AppleWebKit/537.36 (KHTML, like Gecko) draw.io/26.0.4 Chrome/128.0.6613.186 Electron/32.2.5 Safari/537.36" version="26.0.4">
  <diagram name="第 1 页" id="WyTH5kYtjfFNt4IqsPH6">
    <mxGraphModel dx="1050" dy="621" grid="0" gridSize="10" guides="1" tooltips="1" connect="1" arrows="1" fold="1" page="0" pageScale="1" pageWidth="827" pageHeight="1169" math="0" shadow="0">
      <root>
        <mxCell id="0" />
        <mxCell id="1" parent="0" />
        <mxCell id="Ce_wNM95gCRB8p4aZ32v-3" style="edgeStyle=orthogonalEdgeStyle;rounded=0;orthogonalLoop=1;jettySize=auto;html=1;entryX=0.5;entryY=0;entryDx=0;entryDy=0;" parent="1" source="Ce_wNM95gCRB8p4aZ32v-1" target="Ce_wNM95gCRB8p4aZ32v-2" edge="1">
          <mxGeometry relative="1" as="geometry" />
        </mxCell>
        <mxCell id="Ce_wNM95gCRB8p4aZ32v-1" value="&lt;b&gt;&lt;font style=&quot;font-size: 14px;&quot;&gt;开始&lt;/font&gt;&lt;/b&gt;" style="strokeWidth=2;html=1;shape=mxgraph.flowchart.terminator;whiteSpace=wrap;fillColor=#dae8fc;strokeColor=#6c8ebf;" parent="1" vertex="1">
          <mxGeometry x="370" y="105" width="100" height="60" as="geometry" />
        </mxCell>
        <mxCell id="Ce_wNM95gCRB8p4aZ32v-2" value="&lt;font style=&quot;font-size: 14px;&quot;&gt;&lt;b&gt;while(true)&lt;/b&gt;&lt;/font&gt;" style="rounded=0;whiteSpace=wrap;html=1;fillColor=#dae8fc;strokeColor=#6c8ebf;strokeWidth=2;" parent="1" vertex="1">
          <mxGeometry x="360" y="252" width="120" height="60" as="geometry" />
        </mxCell>
        <mxCell id="Ce_wNM95gCRB8p4aZ32v-7" style="edgeStyle=orthogonalEdgeStyle;rounded=0;orthogonalLoop=1;jettySize=auto;html=1;entryX=0.5;entryY=0;entryDx=0;entryDy=0;" parent="1" source="Ce_wNM95gCRB8p4aZ32v-4" target="Ce_wNM95gCRB8p4aZ32v-6" edge="1">
          <mxGeometry relative="1" as="geometry" />
        </mxCell>
        <mxCell id="vTEauyoymhqe5dRdntVC-1" value="&lt;font style=&quot;font-size: 14px;&quot;&gt;&lt;b&gt;是&lt;/b&gt;&lt;/font&gt;" style="edgeLabel;html=1;align=center;verticalAlign=middle;resizable=0;points=[];" vertex="1" connectable="0" parent="Ce_wNM95gCRB8p4aZ32v-7">
          <mxGeometry x="0.3349" y="-1" relative="1" as="geometry">
            <mxPoint as="offset" />
          </mxGeometry>
        </mxCell>
        <mxCell id="Ce_wNM95gCRB8p4aZ32v-11" style="edgeStyle=orthogonalEdgeStyle;rounded=0;orthogonalLoop=1;jettySize=auto;html=1;entryX=0.5;entryY=0;entryDx=0;entryDy=0;" parent="1" source="Ce_wNM95gCRB8p4aZ32v-4" target="Ce_wNM95gCRB8p4aZ32v-10" edge="1">
          <mxGeometry relative="1" as="geometry" />
        </mxCell>
        <mxCell id="vTEauyoymhqe5dRdntVC-2" value="&lt;font style=&quot;font-size: 14px;&quot;&gt;&lt;b&gt;否&lt;/b&gt;&lt;/font&gt;" style="edgeLabel;html=1;align=center;verticalAlign=middle;resizable=0;points=[];" vertex="1" connectable="0" parent="Ce_wNM95gCRB8p4aZ32v-11">
          <mxGeometry x="0.3387" y="-1" relative="1" as="geometry">
            <mxPoint as="offset" />
          </mxGeometry>
        </mxCell>
        <mxCell id="Ce_wNM95gCRB8p4aZ32v-4" value="&lt;font style=&quot;font-size: 14px;&quot;&gt;&lt;b&gt;是否被打断&lt;/b&gt;&lt;/font&gt;" style="strokeWidth=2;html=1;shape=mxgraph.flowchart.decision;whiteSpace=wrap;fillColor=#dae8fc;strokeColor=#6c8ebf;" parent="1" vertex="1">
          <mxGeometry x="130" y="373" width="154" height="100" as="geometry" />
        </mxCell>
        <mxCell id="Ce_wNM95gCRB8p4aZ32v-5" style="edgeStyle=orthogonalEdgeStyle;rounded=0;orthogonalLoop=1;jettySize=auto;html=1;entryX=0.5;entryY=0;entryDx=0;entryDy=0;entryPerimeter=0;" parent="1" source="Ce_wNM95gCRB8p4aZ32v-2" target="Ce_wNM95gCRB8p4aZ32v-4" edge="1">
          <mxGeometry relative="1" as="geometry" />
        </mxCell>
        <mxCell id="Ce_wNM95gCRB8p4aZ32v-9" style="edgeStyle=orthogonalEdgeStyle;rounded=0;orthogonalLoop=1;jettySize=auto;html=1;" parent="1" source="Ce_wNM95gCRB8p4aZ32v-6" target="Ce_wNM95gCRB8p4aZ32v-8" edge="1">
          <mxGeometry relative="1" as="geometry" />
        </mxCell>
        <mxCell id="Ce_wNM95gCRB8p4aZ32v-6" value="&lt;font style=&quot;font-size: 14px;&quot;&gt;&lt;b&gt;料理后事&lt;/b&gt;&lt;/font&gt;" style="rounded=0;whiteSpace=wrap;html=1;fillColor=#dae8fc;strokeColor=#6c8ebf;strokeWidth=2;" parent="1" vertex="1">
          <mxGeometry x="1" y="520" width="120" height="60" as="geometry" />
        </mxCell>
        <mxCell id="Ce_wNM95gCRB8p4aZ32v-8" value="&lt;span style=&quot;font-size: 14px;&quot;&gt;&lt;b&gt;结束&lt;/b&gt;&lt;/span&gt;" style="strokeWidth=2;html=1;shape=mxgraph.flowchart.terminator;whiteSpace=wrap;fillColor=#dae8fc;strokeColor=#6c8ebf;" parent="1" vertex="1">
          <mxGeometry x="11" y="660" width="100" height="60" as="geometry" />
        </mxCell>
        <mxCell id="Ce_wNM95gCRB8p4aZ32v-13" style="edgeStyle=orthogonalEdgeStyle;rounded=0;orthogonalLoop=1;jettySize=auto;html=1;entryX=0.5;entryY=0;entryDx=0;entryDy=0;" parent="1" source="Ce_wNM95gCRB8p4aZ32v-10" target="Ce_wNM95gCRB8p4aZ32v-12" edge="1">
          <mxGeometry relative="1" as="geometry" />
        </mxCell>
        <mxCell id="Ce_wNM95gCRB8p4aZ32v-39" value="&lt;font style=&quot;font-size: 14px;&quot;&gt;&lt;b&gt;正常运行/正常运行时打断&lt;/b&gt;&lt;/font&gt;" style="edgeLabel;html=1;align=center;verticalAlign=middle;resizable=0;points=[];" parent="Ce_wNM95gCRB8p4aZ32v-13" vertex="1" connectable="0">
          <mxGeometry x="-0.01" relative="1" as="geometry">
            <mxPoint as="offset" />
          </mxGeometry>
        </mxCell>
        <mxCell id="Ce_wNM95gCRB8p4aZ32v-17" style="edgeStyle=orthogonalEdgeStyle;rounded=0;orthogonalLoop=1;jettySize=auto;html=1;entryX=0;entryY=0.5;entryDx=0;entryDy=0;" parent="1" source="Ce_wNM95gCRB8p4aZ32v-10" target="Ce_wNM95gCRB8p4aZ32v-15" edge="1">
          <mxGeometry relative="1" as="geometry" />
        </mxCell>
        <mxCell id="Ce_wNM95gCRB8p4aZ32v-38" value="&lt;font style=&quot;font-size: 14px;&quot;&gt;&lt;b&gt;睡眠时打断&lt;/b&gt;&lt;/font&gt;" style="edgeLabel;html=1;align=center;verticalAlign=middle;resizable=0;points=[];" parent="Ce_wNM95gCRB8p4aZ32v-17" vertex="1" connectable="0">
          <mxGeometry x="-0.0154" relative="1" as="geometry">
            <mxPoint as="offset" />
          </mxGeometry>
        </mxCell>
        <mxCell id="Ce_wNM95gCRB8p4aZ32v-10" value="&lt;font style=&quot;font-size: 14px;&quot;&gt;&lt;b&gt;睡眠1s&lt;/b&gt;&lt;/font&gt;" style="rounded=0;whiteSpace=wrap;html=1;fillColor=#dae8fc;strokeColor=#6c8ebf;strokeWidth=2;" parent="1" vertex="1">
          <mxGeometry x="300" y="520" width="120" height="60" as="geometry" />
        </mxCell>
        <mxCell id="Ce_wNM95gCRB8p4aZ32v-26" style="edgeStyle=orthogonalEdgeStyle;rounded=0;orthogonalLoop=1;jettySize=auto;html=1;entryX=1;entryY=0.5;entryDx=0;entryDy=0;strokeWidth=1;" parent="1" edge="1">
          <mxGeometry relative="1" as="geometry">
            <mxPoint x="420" y="695" as="sourcePoint" />
            <mxPoint x="480" y="283" as="targetPoint" />
            <Array as="points">
              <mxPoint x="735" y="695" />
              <mxPoint x="735" y="283" />
            </Array>
          </mxGeometry>
        </mxCell>
        <mxCell id="Ce_wNM95gCRB8p4aZ32v-12" value="&lt;font style=&quot;font-size: 14px;&quot;&gt;&lt;b&gt;执行监控记录&lt;/b&gt;&lt;/font&gt;" style="rounded=0;whiteSpace=wrap;html=1;fillColor=#dae8fc;strokeColor=#6c8ebf;strokeWidth=2;" parent="1" vertex="1">
          <mxGeometry x="300" y="660" width="120" height="60" as="geometry" />
        </mxCell>
        <mxCell id="Ce_wNM95gCRB8p4aZ32v-27" style="edgeStyle=orthogonalEdgeStyle;rounded=0;orthogonalLoop=1;jettySize=auto;html=1;entryX=1;entryY=0.5;entryDx=0;entryDy=0;strokeColor=none;" parent="1" source="Ce_wNM95gCRB8p4aZ32v-15" target="Ce_wNM95gCRB8p4aZ32v-2" edge="1">
          <mxGeometry relative="1" as="geometry">
            <Array as="points">
              <mxPoint x="736" y="550" />
              <mxPoint x="736" y="282" />
            </Array>
          </mxGeometry>
        </mxCell>
        <mxCell id="Ce_wNM95gCRB8p4aZ32v-33" style="edgeStyle=orthogonalEdgeStyle;rounded=0;orthogonalLoop=1;jettySize=auto;html=1;endArrow=none;endFill=0;" parent="1" source="Ce_wNM95gCRB8p4aZ32v-15" edge="1">
          <mxGeometry relative="1" as="geometry">
            <mxPoint x="735" y="550" as="targetPoint" />
          </mxGeometry>
        </mxCell>
        <mxCell id="Ce_wNM95gCRB8p4aZ32v-15" value="&lt;span style=&quot;font-size: 14px;&quot;&gt;&lt;b&gt;重新设置打断标记&lt;/b&gt;&lt;/span&gt;" style="rounded=0;whiteSpace=wrap;html=1;fillColor=#dae8fc;strokeColor=#6c8ebf;strokeWidth=2;" parent="1" vertex="1">
          <mxGeometry x="576" y="520" width="120" height="60" as="geometry" />
        </mxCell>
      </root>
    </mxGraphModel>
  </diagram>
</mxfile>
